#!OML:ASF H:\LiuWeirdWalks\Patient Classification 1\Patient 1\Session 1\male.ASF
:FULLY-SPECIFIED
:DEGREES
1247
root 2.6202 17.853 32.662 -1.3801 -2.82679 -14.9021
lowerback 12.7429 -1.6598 -9.29815
upperback 0.838154 -3.71239 -2.95112
thorax -5.88182 -1.60806 2.73866
lowerneck -17.5133 3.36706 5.59999
upperneck 16.503 1.49848 8.19215
head 8.04398 1.90564 2.00819
rclavicle 7.69297e-014 4.13472e-014
rhumerus -28.4712 -18.02 -9.02333
rradius 37.7142
rwrist -8.88871
rhand -16.38 1.80512
rfingers 7.12502
rthumb 9.83359 -27.9453
lclavicle 7.69297e-014 4.13472e-014
lhumerus -42.7678 35.6447 24.5583
lradius 42.727
lwrist 6.91573
lhand -19.2319 2.0015
lfingers 7.12502
lthumb 7.08129 31.863
rfemur -17.8389 -10.7423 26.1215
rtibia 55.2093
rfoot -4.43443 -20.8398
rtoes 0.0638394
lfemur -2.78793 -3.41284 -0.915323
ltibia 31.2346
lfoot -14.3882 21.5118
ltoes -9.75223
1248
root 2.6226 17.8516 32.7018 -1.24785 -2.92072 -14.6565
lowerback 12.7221 -1.67923 -9.27226
upperback 0.842297 -3.72325 -2.8195
thorax -5.85668 -1.6139 2.8643
lowerneck -17.5714 3.38746 5.5685
upperneck 16.5394 1.5376 8.13112
head 8.06498 1.91831 1.99955
rclavicle 5.41688e-014 -6.36111e-015
rhumerus -28.3635 -17.9511 -9.17831
rradius 37.6605
rwrist -9.11523
rhand -16.4371 1.66125
rfingers 7.12502
rthumb 9.77842 -28.0917
lclavicle 5.41688e-014 -6.36111e-015
lhumerus -42.982 35.6915 24.4458
lradius 42.781
lwrist 6.94145
lhand -19.2517 1.87997
lfingers 7.12502
lthumb 7.06219 31.7422
rfemur -18.1121 -10.5932 25.9852
rtibia 53.8188
rfoot -4.89095 -20.2127
rtoes -0.787379
lfemur -2.6713 -3.3256 -1.22294
ltibia 31.0912
lfoot -14.4055 21.6068
ltoes -9.82766
1249
root 2.62283 17.8552 32.742 -1.03013 -2.97692 -14.0665
lowerback 12.6081 -1.69932 -9.64462
upperback 0.818461 -3.78585 -2.75701
thorax -5.7838 -1.63675 3.14067
lowerneck -17.6653 3.41451 5.53863
upperneck 16.5995 1.5814 8.06395
head 8.10025 1.93428 1.99058
rclavicle 3.83654e-014 2.8625e-014
rhumerus -28.1858 -17.8737 -9.37904
rradius 37.5889
rwrist -9.52245
rhand -16.612 1.52998
rfingers 7.12502
rthumb 9.60974 -28.2308
lclavicle 3.83654e-014 2.8625e-014
lhumerus -43.2402 35.767 24.2871
lradius 42.8303
lwrist 6.93615
lhand -19.2686 1.76215
lfingers 7.12502
lthumb 7.04583 31.6249
rfemur -18.5025 -10.4506 25.4804
rtibia 52.3815
rfoot -5.27021 -19.5659
rtoes -1.62986
lfemur -2.65191 -3.29447 -1.93161
ltibia 30.9015
lfoot -14.3713 21.7631
ltoes -9.89369
1250
root 2.62225 17.8589 32.7823 -0.815649 -3.03256 -13.559
lowerback 12.5037 -1.72593 -9.91961
upperback 0.801223 -3.84226 -2.6757
thorax -5.71382 -1.65922 3.38223
lowerneck -17.7992 3.44251 5.52824
upperneck 16.6413 1.6237 7.97424
head 8.13688 1.94846 1.9713
rclavicle -3.57812e-015 -4.45278e-014
rhumerus -28.0073 -17.8439 -9.5801
rradius 37.5171
rwrist -9.93364
rhand -16.818 1.39429
rfingers 7.12502
rthumb 9.41092 -28.3756
lclavicle -3.57812e-015 -4.45278e-014
lhumerus -43.4847 35.8477 24.1284
lradius 42.8825
lwrist 6.89175
lhand -19.2892 1.73303
lfingers 7.12502
lthumb 7.026 31.5964
rfemur -18.8586 -10.2685 25.0634
rtibia 50.8653
rfoot -5.59491 -18.9538
rtoes -2.39051
lfemur -2.62223 -3.25425 -2.53784
ltibia 30.6966
lfoot -14.3302 21.8911
ltoes -9.96162
1251
root 2.62098 17.8626 32.8226 -0.603315 -3.0859 -13.1017
lowerback 12.4088 -1.76535 -10.1483
upperback 0.787639 -3.9085 -2.57678
thorax -5.64484 -1.68775 3.61851
lowerneck -17.9257 3.49579 5.57603
upperneck 16.6388 1.70131 7.82552
head 8.15783 1.97503 1.92598
rclavicle -9.74045e-015 1.27222e-014
rhumerus -27.7758 -17.836 -9.80969
rradius 37.4229
rwrist -10.4
rhand -17.0806 1.27327
rfingers 7.12502
rthumb 9.15759 -28.5079
lclavicle -9.74045e-015 1.27222e-014
lhumerus -43.7561 35.9321 23.9421
lradius 42.9403
lwrist 6.87047
lhand -19.3153 1.73097
lfingers 7.12502
lthumb 7.00076 31.5952
rfemur -19.1772 -10.0527 24.6961
rtibia 49.27
rfoot -5.87276 -18.356
rtoes -3.0567
lfemur -2.59729 -3.20712 -3.07946
ltibia 30.5007
lfoot -14.2902 21.9967
ltoes -10.0292
1252
root 2.61782 17.8654 32.8607 -0.398377 -3.15435 -12.8288
lowerback 12.3637 -1.78302 -10.1306
upperback 0.759027 -3.9186 -2.45513
thorax -5.64108 -1.69127 3.73756
lowerneck -17.9678 3.51491 5.59672
upperneck 16.5629 1.74914 7.69646
head 8.13913 1.98323 1.88422
rclavicle -2.60408e-014 6.36111e-015
rhumerus -27.7297 -17.8646 -9.9334
rradius 37.3851
rwrist -10.4862
rhand -17.127 1.23429
rfingers 7.12502
rthumb 9.11277 -28.5488
lclavicle -2.60408e-014 6.36111e-015
lhumerus -43.9108 35.9338 23.8412
lradius 42.9959
lwrist 6.86639
lhand -19.3519 1.78004
lfingers 7.12502
lthumb 6.96548 31.6454
rfemur -19.4409 -9.7456 24.5367
rtibia 47.5691
rfoot -6.09016 -17.8027
rtoes -3.67441
lfemur -2.58898 -3.12878 -3.39038
ltibia 30.3536
lfoot -14.2707 22.0601
ltoes -10.0858
1253
root 2.61251 17.8667 32.8975 -0.219401 -3.23268 -12.7983
lowerback 12.3758 -1.80231 -9.86128
upperback 0.745386 -3.89875 -2.27336
thorax -5.66884 -1.68488 3.77962
lowerneck -18.0027 3.54092 5.65035
upperneck 16.4405 1.80983 7.52667
head 8.10406 1.99353 1.8239
rclavicle 1.21259e-014 -5.40694e-014
rhumerus -27.7077 -17.9151 -10.0469
rradius 37.3606
rwrist -10.5625
rhand -17.1735 1.21039
rfingers 7.12502
rthumb 9.06795 -28.5747
lclavicle 1.21259e-014 -5.40694e-014
lhumerus -44.0227 35.9386 23.7601
lradius 43.0456
lwrist 6.86015
lhand -19.3665 1.87891
lfingers 7.12502
lthumb 6.95133 31.7448
rfemur -19.6153 -9.35 24.6434
rtibia 45.7739
rfoot -6.25959 -17.2985
rtoes -4.27517
lfemur -2.56974 -3.01139 -3.4017
ltibia 30.2491
lfoot -14.2747 22.0639
ltoes -10.1341
